<svg xmlns="http://www.w3.org/2000/svg" viewBox="0 0 222.45 253.82"><defs><style>.cls-1{fill:#fff;}</style></defs><g id="Layer_2" data-name="Layer 2"><g id="Layer_1-2" data-name="Layer 1"><polygon class="cls-1" points="59.84 204.07 36.14 190.38 18.58 113 39.69 100.81 59.84 204.07"/><polygon class="cls-1" points="90.47 32.06 90.47 221.75 68.14 208.86 68.14 44.95 90.47 32.06"/><polygon class="cls-1" points="134.7 33.66 134.7 220.15 111.2 233.72 111.14 233.69 111.14 20.09 111.17 20.11 112.05 20.58 112.13 20.63 134.7 33.66"/><polygon class="cls-1" points="169.18 53.57 169.18 200.24 145.61 213.85 145.61 39.96 169.18 53.57"/><polygon class="cls-1" points="203.56 73.42 203.56 180.39 180 194 180 59.81 203.56 73.42"/><path class="cls-1" d="M111.22,253.82a8.71,8.71,0,0,1-4.33-1.16L4.34,193.54A8.68,8.68,0,0,1,0,186V67.79a8.68,8.68,0,0,1,4.34-7.51L106.89,1.16a8.66,8.66,0,0,1,8.67,0L218.11,60.28a8.7,8.7,0,0,1,4.34,7.51V186a8.7,8.7,0,0,1-4.34,7.51L115.55,252.66A8.65,8.65,0,0,1,111.22,253.82ZM10,185.25l101.21,58.36,101.22-58.36V68.56L111.22,10.21,10,68.56Z"/></g></g></svg>